name processed_emg_signals
nRows=50
nColumns=7
 
endheader
time	LGLTMED	LRF	LADDLONG	LST	LTA	LGM
0.617	0.0275867576777552	0.0322459824124219	0.0291772268739001	0.1166692484199736	0.1180007890991594	0.1499384627407861
0.618	0.0275133551059887	0.0323208489865226	0.0292637938176287	0.1140789330013563	0.1165538919828286	0.1469293038746887
0.619	0.0274411287616444	0.0323943885514214	0.0293494542291601	0.1115239999776948	0.1150794338598246	0.143928429280691
0.62	0.0273700563478209	0.0324665264483939	0.0294341668008761	0.1090059794779744	0.1135781416446134	0.1409374273178972
0.621	0.0273001152669957	0.032537191719781	0.0295178912239145	0.1065263275781997	0.1120507852591151	0.1379578694653943
0.622	0.0272312827405518	0.0326063172002187	0.0296005882399259	0.1040864254859916	0.1104981776066659	0.1349913087604824
0.623	0.0271635359272478	0.0326738395989839	0.0296822196926651	0.101687578859751	0.1089211744804494	0.1320392782491571
0.624	0.0270968520402182	0.0327396995731842	0.0297627485793312	0.0993310172613604	0.1073206744067372	0.129103289453746
0.625	0.0270312084621574	0.0328038417915961	0.0298421391015927	0.0970178937411986	0.1056976184236311	0.1261848308625876
0.626	0.0269665828583896	0.0328662149889382	0.0299203567161884	0.0947492845540592	0.1040529897960522	0.1232853664464603
0.627	0.0269029532875444	0.0329267720104561	0.0299973681850569	0.0925261890044023	0.1023878136680295	0.1204063342062516
0.628	0.0268402983096265	0.0329854698466159	0.0300731416248493	0.0903495294192091	0.1007031566534406	0.1175491447560932
0.629	0.0267785970911567	0.0330422696577184	0.0301476465557028	0.0882201512465457	0.0990001263667122	0.1147151799459937
0.63	0.0267178295071441	0.0330971367882282	0.0302208539491261	0.0861388232778406	0.0972798708951831	0.1119057915276525
0.631	0.0266579762394711	0.0331500407706334	0.0302927362747913	0.084106237991712	0.0955435782150657	0.1091222998669436
0.632	0.0265990188712986	0.0332009553187162	0.0303632675460716	0.0821230120170249	0.0937924755529597	0.1063659927061531
0.633	0.0265409399770945	0.0332498583101406	0.0304324233640385	0.0801896867126822	0.0920278286949208	0.1036381239788405
0.634	0.0264837232078239	0.0332967317583871	0.0305001809597008	0.0783067288614329	0.0902509412450637	0.1009399126799151
0.635	0.0264273533709372	0.0333415617740026	0.0305665192341515	0.0764745314747663	0.0884631538356623	0.0982725417933216
0.636	0.0263718165047143	0.0333843385152346	0.0306314187963701	0.0746934147057281	0.0866658432905756	0.0956371572794582
0.637	0.0263170999466369	0.0334250561279697	0.0306948619983425	0.0729636268663179	0.0848604217437319	0.0930348671243058
0.638	0.0262631923953421	0.0334637126749375	0.0307568329672509	0.0712853455459534	0.0830483357142123	0.0904667404519097
0.639	0.0262100839659022	0.0335003100541064	0.0308173176345146	0.0696586788272678	0.0812310651392386	0.0879338067016797
0.64	0.0261577662380869	0.0335348539062253	0.0308763037615216	0.0680836665954196	0.0794101223662036	0.0854370548716287
0.641	0.0261062322974515	0.0335673535115065	0.0309337809620731	0.066560281936881	0.0775870511046407	0.0829774328284713
0.642	0.0260554767690965	0.0335978216754793	0.0309897407214751	0.0650884326236001	0.0757634253390095	0.0805558466851919
0.643	0.0260054958440967	0.033626274604121	0.0310441764123673	0.0636679626782663	0.0739408482031146	0.0781731602466038
0.644	0.0259562872987445	0.0336527317684466	0.0310970833073186	0.0622986540163904	0.0721209508170127	0.0758301945231011
0.645	0.0259078505067431	0.0336772157588335	0.0311484585882212	0.0609802281608001	0.0703053910873387	0.0735277273127158
0.646	0.0258601864446682	0.0336997521295596	0.0311983013526217	0.0597123480241412	0.0684958524720471	0.0712664928513185
0.647	0.0258132976909144	0.0337203692341805	0.0312466126170331	0.0584946197548915	0.0666940427106795	0.0690471815307089
0.648	0.0257671884184175	0.0337390980525458	0.0312933953173953	0.0573265946423046	0.0649016925212952	0.0668704396841727
0.649	0.0257218643813329	0.0337559720103267	0.031338654306716	0.0562077710756121	0.0631205542652891	0.0647368694389596
0.65	0.0256773328959365	0.0337710267920165	0.0313823963499666	0.0551375965526764	0.0613524005813104	0.0626470286349986
0.651	0.0256336028159385	0.0337843001483336	0.0314246301162388	0.0541154697332377	0.0595990229895246	0.0606014308090233
0.652	0.0255906845024584	0.0337958316989954	0.0314653661680975	0.0531407425316746	0.0578622304673951	0.058600545243077
0.653	0.0255485897889047	0.0338056627318528	0.0315046169481015	0.0522127222441214	0.0561438479981304	0.0566447970762133
0.654	0.0255073319410507	0.0338138359993593	0.0315423967623493	0.0513306737045982	0.0544457150929068	0.0547345674780332
0.655	0.0254669256125658	0.0338203955133316	0.0315787217609244	0.0504938214647382	0.0527696842879173	0.05287019388257
0.656	0.0254273867962896	0.0338253863389419	0.0316136099150705	0.0497013519915803	0.05111761961736	0.0510519702809184
0.657	0.0253887327714629	0.0338288543888432	0.0316470809908618	0.0489524158779304	0.0494913950635089	0.0492801475708336
0.658	0.0253509820471696	0.0338308462181897	0.0316791565191094	0.0482461300598287	0.0478928929851215	0.0475549339614047
0.659	0.0253141543020924	0.0338314088213333	0.031709859761159	0.0475815800358568	0.046324002525504	0.0458764954307666
0.66	0.0252782703207965	0.033830589430825	0.0317392156702938	0.0469578220833916	0.0447866180014571	0.0442449562347163
0.661	0.0252433519265872	0.0338284353193766	0.031767250848458	0.0463738854673567	0.0432826372743211	0.0426603994640414
0.662	0.0252094219110888	0.0338249936054372	0.0317939934981166	0.0458287746377181	0.0418139601041542	0.0411228676483188
0.663	0.0251765039606315	0.0338203110629877	0.0318194733692164	0.0453214714124572	0.0403824864879734	0.039632363403922
0.664	0.0251446225796022	0.0338144339361687	0.0318437217012877	0.0448509371432565	0.0389901149828464	0.0381888501240593
0.665	0.025113803010899	0.0338074077593594	0.0318667711609311	0.0444161148613606	0.0376387410145573	0.0367922527086652
0.666	0.025084071153688	0.033799277183265	0.031888655774949	0.0440159314011635	0.0363302551724623	0.0354424583320832
